<svg width="42" height="42" viewBox="0 0 42 42" fill="none" xmlns="http://www.w3.org/2000/svg">
<path d="M40.0909 5.4541H1.90909C0.854764 5.4541 0 6.30874 0 7.36319V34.6358C0 35.6903 0.854764 36.5449 1.90909 36.5449H40.0909C41.1452 36.5449 42 35.6903 42 34.6358V7.36319C42 6.30874 41.1452 5.4541 40.0909 5.4541ZM28.8742 27.0041C27.2065 28.5663 24.9792 29.4625 22.7634 29.4625C22.7632 29.4625 22.7631 29.4625 22.7631 29.4625L22.7211 29.4622L18.9431 29.4625C14.2612 29.4625 10.452 25.6965 10.452 21.0674C10.452 16.2042 14.1165 12.5367 18.9759 12.5367H22.7237C24.9913 12.5367 27.2245 13.3992 28.8579 14.9032C30.5925 16.5002 31.5477 18.6893 31.5477 21.0675C31.5479 23.2804 30.5984 25.3887 28.8742 27.0041Z" fill="#172345"/>
<path d="M19.0005 14.2139C15.2667 14.2139 12.2292 17.2516 12.2292 20.9855C12.2292 24.7196 15.2667 27.7573 19.0005 27.7573C22.7326 27.7573 25.7689 24.7196 25.7689 20.9855C25.7689 17.2516 22.7326 14.2139 19.0005 14.2139ZM17.3478 25.2917C15.6147 24.626 14.3905 22.9508 14.3869 20.9855C14.3903 19.0212 15.6146 17.346 17.3478 16.6758V25.2917ZM20.6511 25.2917V16.6758C22.3837 17.3425 23.6112 19.0213 23.6149 20.9855C23.6112 22.9508 22.3837 24.6259 20.6511 25.2917Z" fill="#172345"/>
</svg>
