<svg width="42" height="42" fill="none" xmlns="http://www.w3.org/2000/svg"><path d="M40.09 5.454H1.91A1.91 1.91 0 000 7.364v27.272a1.91 1.91 0 001.91 1.909h38.18a1.91 1.91 0 001.91-1.91V7.364a1.91 1.91 0 00-1.91-1.909zm-11.216 21.55c-1.668 1.562-3.895 2.458-6.11 2.458h-3.821c-4.682 0-8.491-3.765-8.491-8.395 0-4.863 3.665-8.53 8.524-8.53h3.748c2.267 0 4.5.862 6.134 2.366 1.735 1.597 2.69 3.786 2.69 6.164 0 2.213-.95 4.322-2.674 5.937z" fill="#172345"/><path d="M19 14.214a6.779 6.779 0 00-6.77 6.771A6.78 6.78 0 0019 27.758c3.733 0 6.769-3.037 6.769-6.772 0-3.733-3.036-6.771-6.768-6.771zm-1.652 11.078a4.616 4.616 0 01-2.961-4.307 4.626 4.626 0 012.96-4.31v8.617zm3.303 0v-8.616a4.627 4.627 0 012.964 4.31 4.62 4.62 0 01-2.964 4.306z" fill="#172345"/></svg>