<svg width="30" height="30" fill="none" xmlns="http://www.w3.org/2000/svg"><path d="M14 0C6.27 0 0 6.27 0 14c0 3.66 1.44 7.18 4 9.8.33.33.67.64 1.03.94.36.31.73.59 1.13.85a13.97 13.97 0 0015.68 0c.4-.26.77-.54 1.13-.85.36-.3.7-.61 1.03-.94 5.41-5.52 5.32-14.39-.2-19.8-2.62-2.56-6.14-4-9.8-4zm0 26c-2.93.01-5.75-1.06-7.94-3.01.56-4.39 4.57-7.49 8.95-6.93 3.62.46 6.46 3.31 6.93 6.93A11.865 11.865 0 0114 26zm-3-15c0-1.66 1.34-3 3-3s3 1.34 3 3-1.34 3-3 3c-1.65 0-3-1.35-3-3zm12.6 10.2c-.89-3.04-3.17-5.48-6.15-6.58 2-1.91 2.07-5.07.17-7.07s-5.07-2.07-7.07-.17-2.07 5.07-.17 7.07c.05.06.11.11.17.17-2.98 1.1-5.26 3.54-6.15 6.58C.42 15.9 1.5 8.38 6.8 4.4 12.1.42 19.62 1.5 23.6 6.8a12 12 0 010 14.4z" fill="#5326D4"/></svg>