<svg width="25" height="25" fill="none" xmlns="http://www.w3.org/2000/svg"><g clip-path="url(#clip0_1_32)"><path d="M37.623 3.65a.815.815 0 00-.675-.337H14.893L14.248.644C14.156.245 13.82 0 13.42 0H9.525a.857.857 0 00-.86.859c0 .49.4.859.86.859h3.22l4.632 19.172c.092.398.43.644.829.644h1.134c-.46.337-.797.89-.797 1.534 0 1.073.859 1.932 1.933 1.932a1.924 1.924 0 001.932-1.933c0-.644-.337-1.165-.798-1.533h7.761c-.46.337-.797.89-.797 1.534 0 1.073.858 1.932 1.932 1.932a1.925 1.925 0 001.933-1.933c0-.644-.338-1.165-.798-1.533h.552c.46 0 .86-.368.86-.86a.878.878 0 00-.86-.858H18.88l-.49-1.994h15.46a.856.856 0 00.828-.644l3.098-12.792c.061-.276 0-.552-.153-.736zM23.42 11.84l-.307-2.546h4.97l-.307 2.546H23.42zm4.141 1.718l-.306 2.546H23.91l-.307-2.546h3.957zM16.334 9.294h5.062l.306 2.546h-4.754l-.614-2.546zM22.9 7.577l-.307-2.546h5.982l-.307 2.546H22.9zM20.874 5.03l.307 2.546h-5.276L15.29 5.03h5.583zm-3.527 8.527h4.54l.306 2.546H17.96l-.613-2.546zm11.625 2.546l.307-2.546h4.51l-.614 2.546h-4.203zm5.246-4.263h-4.724l.307-2.547h5.03l-.613 2.546zm1.012-4.264h-5.245l.306-2.546h5.553l-.614 2.546z" fill="#5326D4"/></g><defs><clipPath id="clip0_1_32"><path fill="#fff" d="M0 0h25v25H0z"/></clipPath></defs></svg>