<svg width="70" height="30" fill="none" xmlns="http://www.w3.org/2000/svg"><g clip-path="url(#clip0_1_44)" fill="#5326D4"><path d="M31.917.248c-2.584.538-3.709 3.952-2.084 6.228.855 1.2 3.125 1.758 4.688 1.158 1.875-.703 2.854-3.165 2.041-5.11-.812-1.883-2.5-2.71-4.645-2.276zM4.27.62C1.98.704.084.787.064.808.02.807 0 1.366 0 2.048v1.2l1.167.124c1.458.145 2.083.559 2.354 1.531.146.497.229 4.325.229 10.262 0 11.463.083 11.09-2.48 11.566L0 26.979v2.441l9.75-.103c8.167-.062 9.938-.145 11.042-.413 2.75-.725 4.645-2.09 5.604-4.035.52-1.035.583-1.407.583-3.041-.02-3.642-1.729-5.752-5.708-7.138-1.75-.6-2.209-.828-1.667-.828.792 0 3.667-1.655 4.584-2.627 1.166-1.221 1.52-2.194 1.5-4.035 0-2.317-1.23-4.241-3.355-5.317C19.667.538 15.583.248 4.271.62zm10.71 2.918c1.562.6 2.29 2.069 2.312 4.531 0 3.207-1.105 4.428-4.25 4.676l-1.584.145V3.04l1.48.145c.812.083 1.729.248 2.041.352zm1.082 12.455c.875.352 1.73 1.304 2.105 2.359.416 1.2.354 4.696-.105 5.896-.666 1.717-2.312 2.628-4.166 2.359-1.209-.186-1.959-.766-2.23-1.738-.104-.414-.208-2.71-.208-5.09v-4.324l1.938.124c1.062.062 2.27.249 2.666.414zm28.251-9.641c-.084.062-.146.269-.146.455 0 .641-1 2.462-1.771 3.227-.98.952-2.542 1.697-4 1.883l-1.104.124v2.441h2.5v5.753c0 6.703.083 7.2 1.583 8.503 1.208 1.055 2.438 1.345 5.063 1.2 2.833-.145 4.541-.973 5.645-2.752l.459-.724 1 .931C55.437 29.152 57.833 30 60.937 30c2.126 0 3.584-.331 5.25-1.18 1.209-.6 3.188-2.275 3.188-2.71 0-.145-.438-.517-.98-.848l-.978-.62-1 .93c-1.25 1.159-2.25 1.594-3.709 1.594-2.604 0-4.062-1.76-4.479-5.504l-.125-1.18H70v-.827c0-1.324-.417-2.917-1.104-4.2-3.063-5.772-13.625-5.586-17.084.29-1.333 2.255-1.562 6.041-.52 8.607l.52 1.262-.5-.186c-.77-.29-1-.228-1.312.31-.354.683-1.48 1.241-2.125 1.096-.917-.227-1-.806-1-6.765v-5.586h5.208V12h-5.208V6.207h-1.208c-.667 0-1.292.062-1.355.145zm17.75 8.027c.666.559.958 1.283 1.187 2.835l.125.993h-5.292l.146-1.097c.209-1.407.667-2.565 1.209-2.938.708-.496 1.895-.393 2.624.207z"/><path d="M31.146 12.02c-2.625.435-4.854.787-4.938.787-.104.02-.166.58-.166 1.262v1.241h.812c2.271 0 2.521.559 2.521 5.793 0 5.235-.25 5.794-2.52 5.794h-.813v2.482h13.333v-2.482h-.73c-.958 0-1.666-.352-1.958-.973-.145-.33-.229-2.834-.229-7.614 0-5.586-.062-7.138-.25-7.117-.145.02-2.416.393-5.062.828z"/></g><defs><clipPath id="clip0_1_44"><path fill="#fff" d="M0 0h70v30H0z"/></clipPath></defs></svg>